# xmcd
#
# Track frame offsets: 
#        150
#        20916
#        43294
#        59452
#        74847
#        91679
#        108447
#        126569
#        142763
#        154993
#        170035
#        186412
#        199954
#        214600
#        235547
#        249240
#        263577
#        279302
#        288785
#
# Disc length: 4134 seconds
#
# Revision: 1
# Processed by: cddbd v1.5.2PL0 Copyright (c) Steve Scherf et al.
# Submitted via: ExactAudioCopy v1.0b3
#
DISCID=21102413
DTITLE=Various Artist - Country Hits 2014
DYEAR=2013
DGENRE=Country
TTITLE0=Tim McGraw feat. Taylor Swift and Keith Urban - Highway Don't Ca
TTITLE0=re
TTITLE1=Darius Rucker - Wagon Wheel
TTITLE2=Florida Georgia Line - Round Here
TTITLE3=The Band Perry - Done.
TTITLE4=Rascal Flatts - Banjo
TTITLE5=Little Big Town - Tornado
TTITLE6=Autumn Hill - Fire
TTITLE7=Kip Moore - Hey Pretty Girl
TTITLE8=Easton Corbin - All Over the Road
TTITLE9=Billy Currington - Hey Girl
TTITLE10=Eli Young Band - Drunk Last Night
TTITLE11=Justin Moore - Point at You
TTITLE12=Wes Mack feat. Carly McKillip - Duet
TTITLE13=Dierks Bentley - I Hold On
TTITLE14=Jess Moskaluke - Good Lovin'
TTITLE15=Chad Brownlee - Where the Party At?
TTITLE16=Kacey Musgraves - Merry Go 'Round
TTITLE17=Lennon and Maisy Stella - Ho Hey
TTITLE18=The Cadillac Three - Days of Gold (Bonus Track)
EXTD=
EXTT0=
EXTT1=
EXTT2=
EXTT3=
EXTT4=
EXTT5=
EXTT6=
EXTT7=
EXTT8=
EXTT9=
EXTT10=
EXTT11=
EXTT12=
EXTT13=
EXTT14=
EXTT15=
EXTT16=
EXTT17=
EXTT18=
PLAYORDER=
